<svg xmlns="http://www.w3.org/2000/svg" width="352" height="99" viewBox="0 0 352 99" fill="none">
  <!-- i stem -->
  <path d="M19.25 28.0039C20.7687 28.0039 21.9999 29.2264 22 30.7344V96.2695C22 97.7776 20.7688 99 19.25 99H2.75C1.23122 99 0 97.7776 0 96.2695V30.7344C8.65499e-05 29.2264 1.23127 28.0039 2.75 28.0039H19.25Z" fill="#fff"/>
  <!-- t -->
  <path d="M52.25 28.0039C53.7687 28.0039 54.9999 29.2264 55 30.7344V41.6572C55.0001 43.1652 56.2313 44.3877 57.75 44.3877H63.25C64.7687 44.3877 65.9999 45.6101 66 47.1182V52.5791C66 54.0872 64.7688 55.3105 63.25 55.3105H57.75C56.2312 55.3105 55 56.5329 55 58.041V85.3467C55 86.8548 56.2312 88.0781 57.75 88.0781H63.25C64.7688 88.0781 66 89.3005 66 90.8086V96.2695C66 97.7776 64.7688 99 63.25 99H35.75C34.2312 99 33 97.7776 33 96.2695V30.7344C33.0001 29.2264 34.2313 28.0039 35.75 28.0039H52.25Z" fill="#fff"/>
  <!-- t (second) -->
  <path d="M272.25 28.0039C273.769 28.0039 275 29.2264 275 30.7344V41.6572C275 43.1652 276.231 44.3877 277.75 44.3877H283.25C284.769 44.3877 286 45.6101 286 47.1182V52.5791C286 54.0872 284.769 55.3105 283.25 55.3105H277.75C276.231 55.3105 275 56.5329 275 58.041V85.3467C275 86.8548 276.231 88.0781 277.75 88.0781H283.25C284.769 88.0781 286 89.3005 286 90.8086V96.2695C286 97.7776 284.769 99 283.25 99H255.75C254.231 99 253 97.7776 253 96.2695V30.7344C253 29.2264 254.231 28.0039 255.75 28.0039H272.25Z" fill="#fff"/>
  <!-- e (first) -->
  <path fill-rule="evenodd" clip-rule="evenodd" d="M129.25 44C130.769 44 132 45.2313 132 46.75V74.248C132 75.7668 130.769 76.998 129.25 76.998H101.75C100.231 76.998 99.0001 78.2294 99 79.748V85.248C99.0001 86.7667 100.231 87.998 101.75 87.998H129.25C130.769 87.998 132 89.2293 132 90.748V96.2471C132 97.7658 130.769 98.9971 129.25 98.9971H79.75C78.2312 98.9971 77 97.7658 77 96.2471V46.75C77 45.2313 78.2312 44 79.75 44H129.25ZM101.75 54.999C100.231 54.999 99.0001 56.2304 99 57.749V63.249C99 64.7677 100.231 65.999 101.75 65.999H118.25C119.769 65.999 121 64.7677 121 63.249V57.749C121 56.2304 119.769 54.999 118.25 54.999H101.75Z" fill="#fff"/>
  <!-- r -->
  <path d="M173.25 44C174.769 44 176 45.2313 176 46.75V52.25C176 53.7685 174.769 54.999 173.25 54.999H167.75C166.231 54.999 165 56.2304 165 57.749V96.2471C165 97.7658 163.769 98.9971 162.25 98.9971H145.75C144.231 98.9971 143 97.7658 143 96.2471V46.75C143 45.2313 144.231 44 145.75 44H173.25Z" fill="#fff"/>
  <!-- a -->
  <path fill-rule="evenodd" clip-rule="evenodd" d="M239.25 44C240.769 44 242 45.2313 242 46.75V96.2471C242 97.7658 240.769 98.9971 239.25 98.9971H233.75C232.231 98.9971 231 97.7658 231 96.2471V90.748C231 89.2293 229.769 87.998 228.25 87.998H222.75C221.231 87.998 220 89.2293 220 90.748V96.2471C220 97.7658 218.769 98.9971 217.25 98.9971H189.75C188.231 98.9971 187 97.7658 187 96.2471V46.75C187 45.2313 188.231 44 189.75 44H239.25ZM206.25 65.999C204.731 65.999 203.5 67.2303 203.5 68.749V74.248C203.5 75.7668 204.731 76.998 206.25 76.998H222.75C224.269 76.998 225.5 75.7668 225.5 74.248V68.749C225.5 67.2303 224.269 65.999 222.75 65.999H206.25Z" fill="#fff"/>
  <!-- e (second) -->
  <path fill-rule="evenodd" clip-rule="evenodd" d="M349.25 44C350.769 44 352 45.2313 352 46.75V74.248C352 75.7668 350.769 76.998 349.25 76.998H321.75C320.231 76.998 319 78.2294 319 79.748V85.248C319 86.7667 320.231 87.998 321.75 87.998H349.25C350.769 87.998 352 89.2293 352 90.748V96.2471C352 97.7658 350.769 98.9971 349.25 98.9971H299.75C298.231 98.9971 297 97.7658 297 96.2471V46.75C297 45.2313 298.231 44 299.75 44H349.25ZM321.75 54.999C320.231 54.999 319 56.2304 319 57.749V63.249C319 64.7677 320.231 65.999 321.75 65.999H338.25C339.769 65.999 341 64.7677 341 63.249V57.749C341 56.2304 339.769 54.999 338.25 54.999H321.75Z" fill="#fff"/>
  <!-- i dot -->
  <path d="M19.25 0C20.7688 0 22 1.2313 22 2.75V19.249C22 20.7677 20.7688 21.999 19.25 21.999H2.75C1.23122 21.999 1.23703e-05 20.7677 0 19.249V2.75C0 1.2313 1.23122 0 2.75 0H19.25Z" fill="#fff"/>
</svg>
